<svg xmlns="http://www.w3.org/2000/svg" viewBox="0 0 14 15"><defs><style>.a{fill:#27300f;}</style></defs><title>tel</title><path class="a" d="M13.69,11.84,11.52,9.52a1.08,1.08,0,0,0-1.59,0L8.85,10.72l-.21-.13A10.89,10.89,0,0,1,6,8.56a11.69,11.69,0,0,1-1.9-2.81L4,5.53l.73-.78.36-.39a1.27,1.27,0,0,0,0-1.7L3,.35a1.07,1.07,0,0,0-1.59,0L.75,1l0,0A3.85,3.85,0,0,0,.27,2,4.16,4.16,0,0,0,0,3c-.29,2.53.8,4.85,3.73,8,4.06,4.34,7.33,4,7.47,4A3.49,3.49,0,0,0,13,14.18h0l.62-.65A1.27,1.27,0,0,0,13.69,11.84Z"/></svg>